<?xml version="1.0" encoding="utf-8"?>
<!-- Generator: Adobe Illustrator 24.3.0, SVG Export Plug-In . SVG Version: 6.00 Build 0)  -->
<svg version="1.1" id="sadFlower" xmlns="http://www.w3.org/2000/svg" xmlns:xlink="http://www.w3.org/1999/xlink" x="0px" y="0px"
	 viewBox="0 0 1920 1080" style="enable-background:new 0 0 1920 1080;" xml:space="preserve">
<style type="text/css">
	.st0{fill:#FFFFFF;}
	.st1{fill:#FAB685;}
	.st2{fill:#F37C4B;}
	.st3{fill:#6E4218;}
	.st4{fill:#6D6E70;}
	.st5{fill:#E26E45;}
	.st6{fill:#C1C3C5;}
	.st7{fill:#231F20;}
</style>
<path class="st0" d="M386.28,1005.02l-3.39-20.18l11.49-1.93l-8.1-8.91c0,0-10.58-6.23-5.24-7.45c5.34-1.22,11.17-12.59,11.17-12.59
	l-8.5-4.13c0,0-6.15,4.97-7.69,6.51c-1.55,1.53-12.5,6.64-15.7,11.23c-3.2,4.6-10.38,16.98-13.43,19.22s-13.62,6.83-13.62,6.83
	l-6.19-8.78l-1.64-13.34l4.63-21.66l20.37-23.05l29.54-19.3l21.31-30.07l15.97-44.54l-1.64-8.59l-14.23,6.72l-20.34,14.11
	c0,0-14.24,8.17-16.9,9.71c-2.66,1.54-19.37-2.56-21.37-2.87c-2-0.31-22.14-12.97-23.82-12.76s-44.29,5.92-44.29,5.92l-3.62,41.58
	c0,0-7.66,8.88-7.77,10.92c-0.11,2.04-14.5,7.29-14.5,7.29l-12.16,1.14l2.28,11.07l7.17,16.3l12.82,16.43l14.49,13.87
	c0,0,0.44,9.45-2.33,10.29s-3.1,7.76-6.22,8.91c-3.12,1.15,6.53,10.2,9.84,19.9c3.3,9.7,9.06,27.11,12.05,36.02
	c2.99,8.91,12.25,41.37,15.28,46.84s8.74,17.22,12.01,19.77c3.27,2.55,2.25,33.63,2.25,33.63s57.69-16.56,58.21-21.01
	c0.52-4.45,22.48-66.03,24.52-68.33c1.64-1.84-3.69-17.4-5.87-23.53C392.56,1024.68,386.28,1005.02,386.28,1005.02z"/>
<g id="Sniff">
	<path class="st1" d="M192.82,863.5c-2.58-0.06-6.2,1.22-5.66,4.14c4.34,6.19,10.1,10.81,15.81,15.27
		c8.07,6.3,16.23,12.47,24.46,18.5c6.21,4.55,12.81,9.15,20.15,9.59c23.55,1.43,16.7-31.49,3.28-41.79
		C236.43,858.15,209.03,863.85,192.82,863.5z"/>
	<path class="st2" d="M370.6,905.45c-16.44,14.8-36.53,24.82-57.34,25.55c-9.16,0.32-18.36-1.15-27.09-4.34
		c-12.74-4.64-24.88-13.44-31.56-26.83c-8.42-16.9-6.56-39.39,3.25-55.25c9.81-15.86,26.65-25.01,43.49-25.54
		c16.84-0.53,33.47,7.05,46.65,19.21c4.51,4.16,8.86,8.98,14.38,10.92c14.29,5.04,42.57-29.31,45.52-1.3
		C410.03,868.11,382.88,894.41,370.6,905.45z"/>
	<path class="st3" d="M279.59,811.31c1.32-7.64,1.89-15.3,6.1-21.86c2.82-4.4,7.54-8.34,6.91-13.77c2.9,0.1,4.69,3.59,5.92,6.64
		c5.16,12.77,10.32,25.54,15.49,38.32c-6.08,2.89-12.97-1.06-19.51-0.36c-3.25,0.35-6.31,1.84-9.32,3.32
		c-5.25,2.58-10.23,5.72-15.11,9.13c-5.29,3.69-10.37,1.28-3.41-2.98c2.6-1.59,5.57-2.25,8.15-3.87c0.51-0.32,1.01-0.68,1.4-1.17
		c0.77-0.96,1.07-2.29,1.35-3.56c0.46-2.15,0.93-4.31,1.39-6.46C279.18,813.55,279.39,812.43,279.59,811.31z"/>
	<path class="st3" d="M247.94,896.46c0.39,0.63,0.76,1.31,0.81,2.08c0.12,1.6-1.22,2.94-2.59,3.17c-1.37,0.23-2.73-0.35-4.02-0.93
		c-13-5.88-25.5-13.21-37.28-21.87c-1.39-1.02-2.96-2.55-2.63-4.42C214.51,878.95,240.2,884,247.94,896.46z"/>
	<path class="st0" d="M320.41,880.03c-15,2.7-32.51-20.96-15.23-32.48c3.6-2.4,7.97-2.58,12.11-2.36c3.3,0.17,6.64,0.57,9.69,2.02
		C341.13,853.9,333.17,877.73,320.41,880.03z"/>
	<path class="st2" d="M304.29,991.28c1.99-6.49,3.73-17.7-0.3-23.66c-7.54-11.17-19.07,4.46-25.83,10.02
		c-3.65,3.01-7.37,6.06-11.61,7.76c-11.59,4.65-24.01-1.05-33.65-8.43c-10.27-7.85-21.42-11.26-32.27-17.97
		c-12.97-8.01-25.01-18.19-38.73-24.31c-1.77,5.27-0.14,11.42,2.88,15.86c3.02,4.44,7.26,7.52,11.4,10.51
		c12.66,9.13,25.32,18.27,37.97,27.4c15.16,10.94,30.69,22.05,48.12,26.55c3.85,0.99,9.01,4.42,7,8.36c-0.67,1.31-2,2-2.68,3.3
		c-1.53,2.91,1.13,6.52,3.88,7.74c2.75,1.22,6.01,1.56,7.96,4.12c3.66,4.81-0.33,12.81,1.98,18.63c1.69,4.26,6.34,6.26,7.74,10.65
		c0.84,2.62,0.33,5.52,0.44,8.3c0.36,9.52,7.54,16.42,12.46,24.05c7.67,11.89,10.33,27.94,6.99,42.27
		c6.53,2.08,13.73-2.31,17.26-9.01c3.52-6.7,3.86-15.12,2.47-22.79c-3.06-16.89-13.48-30.44-22.16-44.46
		c-8.69-14.02-16.19-31.32-12.26-47.97C295.61,1008.63,301.41,1000.65,304.29,991.28z"/>
	<path class="st2" d="M393.24,1044.76c-3.9,5.01-10.92,5.85-16.93,8.15c-1.46,0.56-2.99,1.16-4.06,2.44
		c-0.8,0.96-1.28,2.22-1.67,3.47c-1.48,4.71-2.04,9.8-1.62,14.78c0.33,3.92,1.23,7.96,0.18,11.7c-1.47,5.2-6.45,8.18-11.17,8.35
		c-6.84,0.25-14.27-3.11-20.83-4.89c-1.19-0.32-2.48-0.63-3.58-0.04c-0.88,0.48-1.49,1.47-1.89,2.49
		c-1.55,3.91-0.73,8.55,0.77,12.49c1.5,3.93,3.66,7.53,4.89,11.58c3.52,11.55-3.27,19.22-4.32,30.06c8.69-3.2,19.44-5.88,25.9,1.57
		c2.07,2.38,3.35,5.51,4.48,8.62c6.17,16.9,9.14,35.36,8.66,53.7c-0.08,3.03,0.05,6.71,2.35,8.15c1.17,0.73,2.61,0.61,3.91,0.27
		c8.86-2.34,14.12-13.59,14.45-24.11c0.33-10.52-3.01-20.65-5.56-30.75c-2.83-11.21-4.72-22.74-5.65-34.37
		c-0.56-6.99-0.75-14.15,0.87-20.92c2.38-9.97,8.43-18.13,12.63-27.26c7.68-16.68,11.68-46.67-0.3-62.04
		c2.11,2.73,1.6,19.5,0.53,22.7C394.76,1042.42,394.07,1043.68,393.24,1044.76z"/>
	<path class="st2" d="M391.65,961.02c2.95-2.06,4.43-2.65,6.61-4.9c1-1.03,0.72-4.17,3.44-6.59c5.59-4.98,17.31-4.08,23.87-3.72
		c3.94,0.22,44.13,7.08,44.3,5.09c-0.92,10.74-7.94,7.08-13.97,7.81c-9.9,1.2-18.31,8.34-27.32,12.94
		c-7.54,3.86-15.21,7.76-23.4,8.91c-1.65,0.23-3.36,0.35-4.96-0.16c-2.99-0.95-5.15-3.87-7.12-6.63c-1.34-1.89-2.73-3.86-3.27-6.23
		C389.29,965.16,389.84,962.28,391.65,961.02z"/>
	<path class="st4" d="M426.89,944.85c18.17-0.49,36.16-7.74,50.67-20.42c1.44-1.26,2.89-2.62,3.77-4.44
		c0.78-1.59,1.08-3.43,1.64-5.14c2.79-8.42,13-12.05,19.39-6.89c0.82,0.67,1.61,1.46,2.58,1.76c0.99,0.31,2.04,0.07,3.04-0.16
		c11.88-2.8,23.87-4.99,35.92-6.58c2.36-0.31,4.85-0.58,7.03,0.52c2.18,1.09,3.86,4.04,3,6.61c-0.85,2.54-3.52,3.41-5.83,3.93
		c-4.71,1.08-9.42,2.15-14.13,3.23c2.23,0.93,4.46,1.86,6.69,2.79c-0.04,8.13-7.94,14.82-14.64,12.4c1.69,3.92,7.27,3.69,8.93,7.62
		c1.37,3.26-1.17,7.24-4.19,8.17s-6.19-0.2-9.19-1.22c-3-1.02-6.28-1.93-9.18-0.58c-2.15,1-3.75,3.09-5.64,4.63
		c-6.58,5.37-16.95,2.65-20.9-5.46c-4.96-1.81-9.6,3.39-14.57,5.17c-3.71,1.33-7.71,0.71-11.55,0.08
		c-9.67-1.59-19.35-3.17-29.02-4.76c4.12-1.98,8.6-2.97,13.06-2.89"/>
	<path class="st4" d="M153.15,906.68c-0.13-4.56,0.23-10-2.93-12.73c-1.57-1.35-3.64-1.61-5.59-1.66
		c-4.43-0.12-8.88,0.57-13.13,2.02c-3.93-8.93-9.45-16.91-16.12-23.29c-1.47-1.41-3.12-2.79-5.02-2.93
		c-1.9-0.13-4.01,1.56-3.86,3.77c0.08,1.15,0.72,2.12,1.33,3.03c2.52,3.72,5.04,7.44,7.56,11.16c-1.22,2-3.93,0.68-5.59-0.83
		c-1.67-1.51-4.22-3.02-5.63-1.2c-0.4,0.52-0.59,1.22-0.73,1.9c-1.2,5.82,0.26,12.3,3.78,16.69c0.34,0.42,0.72,0.93,0.59,1.49
		c-0.18,0.83-1.18,0.8-1.92,0.87c-2.76,0.24-4.17,4.41-3.19,7.4c0.98,2.99,3.47,4.92,5.88,6.48s5.01,3.06,6.57,5.7
		c1.73,2.93,2.2,7.23,5,8.66c1.27,0.65,2.73,0.5,4.11,0.37c7.16-0.71,14.71-0.72,21.08,3.11c3.11,1.87,5.79,4.58,8.81,6.65
		c3.02,2.07,6.63,3.5,10.02,2.44c11.44-3.57,1.5-11.95-1.96-16.02C156.91,923.52,153.4,915.55,153.15,906.68z"/>
	<path class="st2" d="M295.45,1095.06c-3.22-6.31-6.73-12.11-9.8-16.39c-15.95-22.29-52.73-29.8-76.06-27.73
		c-27.37,2.43-55.01,22.05-62.68,52.58c-2.17,8.64-2.7,17.71-4.38,26.49c-2.05,10.72-5.8,21.02-6.9,31.92
		c-0.76,7.53-0.24,15.16-0.71,22.72c-1.12,18.09-8.12,35.61-19.31,48.31c-4.08,4.63-9.15,10.91-6.54,16.79
		c0.82,1.85,2.28,3.17,3.7,4.44c10.41,9.28,24.08,18.99,35.72,11.95c3.65-2.21,6.49-5.83,9.1-9.53c6.91-9.79,12.74-20.6,17.31-32.09
		c1.5-3.76,3.06-7.86,6.2-9.86c2.17-1.38,4.76-1.51,7.23-1.41c16.72,0.7,32.02,10.34,47.92,16.39c12.64,4.81,25.91,7.4,39.21,7.64
		c8.21,0.15,18.32-2.21,20.66-11.32c2.04-7.92-3.22-15.54-5.98-23.17c-2.16-5.96-2.8-12.79-1.11-18.95
		c1.11-4.05,3.17-7.66,5.01-11.34c5.73-11.47,9.55-24.21,11.17-37.33c0.49-3.98,0.79-8.04,0.26-12.02
		c-2.89-21.81-20.02-42.18-35.42-53.93c-9.28-7.08-20.56-11.28-31.57-9.53"/>
	<path class="st6" d="M374.08,952.38c-9.14,9.09-20.21,15.85-27.52,26.94c-3.17,4.82-7.06,11.12-12.14,9.67
		c-3.18-8.5-2.21-18.53,1.11-26.96c3.53-8.95,13.05-25.24,21.92-28.01C364.34,931.89,381.81,944.7,374.08,952.38z"/>
	<path class="st1" d="M297.31,778.21c2.98-0.6,5.21,2.97,6.7,6.02c2.19,4.47,20.06,28.79,10.44,30.93
		C305.9,817.06,298.86,784.55,297.31,778.21z"/>
	<g>
		<g>
			<g>
				<path class="st7" d="M304.12,850.58c3.78-1.89,7.92-3.04,12.15-3.27c3.86-0.21,8.27,0.11,11.77,1.9
					c6.56,3.36,6.93,12.48,3.95,18.39c-1.64,3.25-4.18,5.99-7.16,8.05c-3.22,2.22-7.06,3.93-11.05,3.58
					c-6.71-0.59-11.94-6.63-13.93-12.69c-1.41-4.26-1.64-9.13,0.02-13.35c1.38-3.53,4.54-6.8,8.53-6.87c1.63-0.03,1.64-2.57,0-2.54
					c-4,0.07-7.41,2.54-9.53,5.82c-2.49,3.86-3.06,8.74-2.46,13.22c1.05,7.87,6.15,15.71,13.94,18.27
					c8.29,2.73,17.32-2.79,22.1-9.37c4.59-6.31,5.77-16.42-0.04-22.43c-3.44-3.56-9-4.44-13.73-4.55
					c-5.51-0.13-10.93,1.2-15.85,3.65C301.37,849.12,302.66,851.31,304.12,850.58L304.12,850.58z"/>
			</g>
		</g>
		<g>
			<g>
				<path class="st7" d="M354.06,825.9c2.32-4.06,7.17-6.8,11.81-5.05c4.99,1.88,7.46,7.42,7.3,12.46
					c-0.16,5.22-2.24,11.52-6.16,15.15c-3.9,3.62-9.14,2.3-12.53-1.31c-4.33-4.62-5-11.69-4.7-17.71c0.08-1.63-2.46-1.63-2.54,0
					c-0.32,6.53,0.58,13.79,4.95,18.95c3.7,4.37,10.1,6.56,15.13,3.07c5.11-3.55,7.63-10.59,8.28-16.53
					c0.67-6.15-1.81-12.86-7.53-15.85c-6.01-3.14-13-0.08-16.21,5.55C351.06,826.04,353.25,827.32,354.06,825.9L354.06,825.9z"/>
			</g>
		</g>
		<g>
			<g>
				<path class="st7" d="M322.55,862.89c-0.42,0.18-0.08,0.04,0.03,0.02c0.04-0.01,0.09-0.02,0.13-0.02
					c-0.39,0.09-0.25,0.03-0.13,0.03c0.09,0,0.17,0.01,0.26,0.01c-0.44-0.01-0.14-0.02,0.02,0.03c0.13,0.04,0.37,0.19,0-0.02
					c0.08,0.04,0.16,0.08,0.24,0.13c0.08,0.05,0.15,0.11,0.23,0.15c-0.32-0.19-0.17-0.13-0.08-0.06c0.04,0.04,0.09,0.08,0.13,0.12
					c0.07,0.07,0.14,0.14,0.2,0.21c0.04,0.04,0.07,0.09,0.11,0.14c-0.24-0.26-0.13-0.18-0.07-0.09c0.12,0.19,0.23,0.37,0.33,0.57
					c0.05,0.09,0.07,0.24-0.04-0.11c0.02,0.06,0.04,0.11,0.06,0.17c0.03,0.1,0.06,0.19,0.09,0.29c0.02,0.1,0.04,0.2,0.06,0.3
					c-0.09-0.36-0.03-0.24-0.02-0.13c0,0.07,0.01,0.14,0.01,0.21c0,0.1,0,0.2-0.01,0.3c-0.01,0.24,0.06-0.33,0.02-0.1
					c-0.01,0.04-0.01,0.08-0.02,0.12c-0.02,0.1-0.05,0.2-0.08,0.29c-0.04,0.11-0.14,0.25,0.04-0.08c-0.03,0.05-0.05,0.1-0.07,0.15
					c-0.05,0.09-0.1,0.17-0.15,0.25c-0.06,0.09-0.16,0.15,0.09-0.11c-0.03,0.04-0.07,0.08-0.1,0.11c-0.06,0.06-0.12,0.12-0.18,0.17
					c-0.13,0.12,0.14-0.11,0.14-0.11c-0.05,0.02-0.11,0.08-0.16,0.11c-0.07,0.04-0.14,0.08-0.21,0.12c-0.26,0.13,0.32-0.1,0.04-0.02
					c-0.08,0.02-0.15,0.05-0.23,0.07c-0.14,0.03-0.48,0.05,0,0.02c-0.17,0.01-0.34,0.02-0.51,0.01c-0.33-0.02,0.29,0.06,0.05,0.01
					c-0.1-0.02-0.19-0.04-0.29-0.06c-0.09-0.03-0.19-0.06-0.28-0.09c-0.14-0.05,0.33,0.15,0.15,0.06c-0.05-0.03-0.1-0.05-0.15-0.08
					c-0.09-0.05-0.17-0.11-0.25-0.16c-0.13-0.08,0.27,0.23,0.12,0.09c-0.04-0.04-0.09-0.08-0.13-0.12
					c-0.07-0.07-0.14-0.15-0.21-0.22c-0.1-0.11,0.2,0.29,0.09,0.12c-0.03-0.05-0.07-0.1-0.1-0.15c-0.02-0.04-0.04-0.08-0.06-0.11
					c-0.03-0.05-0.13-0.28-0.03-0.04c0.09,0.23,0.02,0.05,0,0c-0.02-0.07-0.05-0.14-0.07-0.21c-0.18-0.64-0.91-1.1-1.56-0.89
					c-0.66,0.21-1.08,0.88-0.89,1.56c0.34,1.24,1.23,2.14,2.41,2.6c1.03,0.4,2.22,0.29,3.2-0.2c1.18-0.6,1.83-1.84,1.93-3.11
					c0.1-1.27-0.47-2.56-1.31-3.48c-0.48-0.52-1.1-0.92-1.78-1.13c-0.79-0.24-1.56-0.12-2.3,0.19c-0.27,0.12-0.51,0.49-0.58,0.76
					c-0.08,0.3-0.05,0.71,0.13,0.98c0.17,0.27,0.44,0.51,0.76,0.58C321.93,863.1,322.22,863.03,322.55,862.89L322.55,862.89z"/>
			</g>
		</g>
		<g>
			<g>
				<path class="st7" d="M363.91,837.42c0.2-0.1-0.3,0.09,0.04-0.01c0.08-0.02,0.17-0.03,0.24-0.06c0.1-0.02,0.05-0.01-0.16,0.02
					c0.05,0,0.09-0.01,0.14-0.01c0.08,0,0.17,0.01,0.25,0.01c0.1,0.01,0.05,0-0.16-0.03c0.05,0.01,0.09,0.02,0.14,0.03
					c0.09,0.02,0.19,0.05,0.28,0.08c0.02,0.01,0.05,0.02,0.07,0.02c0.12,0.05,0.09,0.03-0.1-0.04c0.06,0.06,0.19,0.09,0.26,0.14
					c0.06,0.04,0.13,0.08,0.19,0.12c0.11,0.08,0.08,0.06-0.08-0.06c0.04,0.03,0.08,0.07,0.12,0.1c0.06,0.05,0.11,0.1,0.16,0.16
					c0.04,0.04,0.07,0.08,0.1,0.11c0.09,0.1,0.07,0.08-0.05-0.07c0,0.04,0.1,0.15,0.13,0.19c0.06,0.09,0.1,0.18,0.15,0.28
					c0.12,0.23-0.07-0.24,0-0.01c0.03,0.11,0.07,0.21,0.09,0.31c0.01,0.05,0.02,0.11,0.03,0.16c0.02,0.11,0.02,0.11,0,0
					c-0.01-0.11-0.02-0.11-0.01,0c0,0.06,0.01,0.11,0.01,0.17c0,0.1,0,0.2-0.01,0.29c-0.02,0.33,0.06-0.22,0,0.04
					c-0.04,0.19-0.08,0.38-0.15,0.56c-0.02,0.05-0.04,0.1-0.06,0.16c0.08-0.18,0.09-0.2,0.03-0.08c-0.04,0.07-0.07,0.15-0.11,0.22
					c-0.05,0.09-0.11,0.18-0.17,0.27c-0.14,0.23,0.19-0.21,0.01,0c-0.07,0.08-0.14,0.16-0.21,0.23c-0.03,0.03-0.16,0.12-0.17,0.16
					c0.16-0.12,0.18-0.14,0.08-0.06c-0.04,0.03-0.08,0.06-0.13,0.08c-0.06,0.04-0.13,0.07-0.2,0.11c-0.12,0.06-0.09,0.04,0.1-0.04
					c-0.05,0.02-0.09,0.03-0.14,0.05c-0.09,0.03-0.19,0.05-0.29,0.06c-0.66,0.11-1.08,0.96-0.89,1.56c0.23,0.71,0.86,1,1.56,0.89
					c1.9-0.32,3.06-2.26,3.26-4.04c0.21-1.92-0.97-3.7-2.72-4.41c-0.96-0.39-2.01-0.3-2.93,0.15c-0.6,0.29-0.81,1.19-0.46,1.74
					C362.57,837.58,363.27,837.72,363.91,837.42L363.91,837.42z"/>
			</g>
		</g>
		<g>
			<g>
				<path class="st7" d="M305.24,833.97c-4.52,0.42-9.26,0.96-13.23,3.36c-4.43,2.67-6.94,7.38-7.63,12.41
					c-0.09,0.68,0.17,1.36,0.89,1.56c0.59,0.17,1.47-0.21,1.56-0.89c0.62-4.5,2.67-8.71,6.71-11.04c3.53-2.03,7.72-2.5,11.7-2.86
					C306.86,836.36,306.87,833.82,305.24,833.97L305.24,833.97z"/>
			</g>
		</g>
		<g>
			<g>
				<path class="st7" d="M309.4,834.07c-3.71-0.7-7.43-1.4-11.14-2.11c-1.86-0.35-3.71-0.7-5.57-1.05
					c-1.43-0.27-3.13-0.83-4.39,0.21c-1.01,0.83-1.18,2.19-1.17,3.42c0.01,1.62,0.07,3.2-0.11,4.81c-0.37,3.31-1.46,6.52-3.13,9.39
					c-0.83,1.42,1.37,2.7,2.19,1.28c1.46-2.5,2.51-5.24,3.08-8.08c0.28-1.4,0.46-2.83,0.53-4.25c0.06-1.32-0.26-2.82,0.03-4.11
					c0.17-0.76,0.73-0.5,1.37-0.39c0.85,0.15,1.7,0.32,2.55,0.48c1.63,0.31,3.25,0.61,4.88,0.92c3.41,0.64,6.81,1.29,10.22,1.93
					C310.33,836.82,311.01,834.37,309.4,834.07L309.4,834.07z"/>
			</g>
		</g>
		<g>
			<g>
				<path class="st7" d="M290.86,834.1c0.22,0.04,0.43,0.1,0.64,0.19c-0.1-0.04-0.2-0.09-0.3-0.13c0.25,0.11,0.48,0.24,0.69,0.41
					c-0.09-0.07-0.17-0.13-0.26-0.2c0.23,0.18,0.43,0.38,0.61,0.61c-0.07-0.09-0.13-0.17-0.2-0.26c0.03,0.03,0.05,0.07,0.08,0.11
					c0.08,0.15,0.19,0.27,0.33,0.36c0.12,0.11,0.27,0.19,0.43,0.23c0.3,0.08,0.71,0.05,0.98-0.13c0.27-0.17,0.51-0.44,0.58-0.76
					c0.07-0.32,0.07-0.7-0.13-0.98c-0.18-0.26-0.38-0.51-0.61-0.74c-0.22-0.22-0.48-0.41-0.74-0.58c-0.26-0.17-0.54-0.29-0.82-0.4
					c-0.2-0.08-0.4-0.14-0.61-0.17c-0.17-0.05-0.34-0.06-0.51-0.02c-0.17,0.01-0.33,0.06-0.47,0.15c-0.26,0.15-0.51,0.46-0.58,0.76
					c-0.07,0.33-0.06,0.69,0.13,0.98C290.27,833.78,290.54,834.05,290.86,834.1L290.86,834.1z"/>
			</g>
		</g>
		<g>
			<g>
				<path class="st7" d="M360.31,804.97c-5.06-0.66-10.64-1.24-15.22,1.54c-3.79,2.3-6.38,6.43-6.32,10.92
					c0.02,1.63,2.56,1.64,2.54,0c-0.05-3.8,2.26-7.21,5.55-9.01c4.06-2.21,9.07-1.48,13.45-0.91c0.69,0.09,1.26-0.65,1.27-1.27
					C361.59,805.48,360.99,805.06,360.31,804.97L360.31,804.97z"/>
			</g>
		</g>
		<g>
			<g>
				<path class="st7" d="M359.87,801.55c-5.99,0.16-11.99-0.13-17.93-0.95c-0.84-0.11-1.56,0.32-1.61,1.23
					c-0.16,3.12-0.84,6.16-2.01,9.05c-0.61,1.52,1.85,2.18,2.45,0.68c1.25-3.11,1.93-6.39,2.1-9.73c-0.54,0.41-1.07,0.82-1.61,1.22
					c6.17,0.84,12.38,1.21,18.6,1.04C361.5,804.04,361.51,801.5,359.87,801.55L359.87,801.55z"/>
			</g>
		</g>
		<g>
			<g>
				<path class="st7" d="M344.75,806.53c0.01-0.15,0.02-0.31,0.03-0.46c0.12-1.63-2.42-1.62-2.54,0c-0.01,0.15-0.02,0.31-0.03,0.46
					C342.09,808.16,344.63,808.15,344.75,806.53c0.01-0.15,0.02-0.31,0.03-0.46c0.12-1.63-2.42-1.62-2.54,0
					c-0.01,0.15-0.02,0.31-0.03,0.46C342.09,808.16,344.63,808.15,344.75,806.53L344.75,806.53z"/>
			</g>
		</g>
		<g>
			<g>
				<path class="st7" d="M289.08,834.19c-0.21-0.02-0.43-0.04-0.64-0.06c-0.17-0.01-0.34,0.03-0.49,0.11
					c-0.16,0.05-0.29,0.14-0.41,0.26c-0.12,0.12-0.21,0.25-0.26,0.41c-0.08,0.15-0.12,0.31-0.11,0.49c0.02,0.11,0.03,0.23,0.05,0.34
					c0.06,0.22,0.17,0.4,0.33,0.56c0.09,0.07,0.17,0.13,0.26,0.2c0.2,0.11,0.41,0.17,0.64,0.17c0.21,0.02,0.43,0.04,0.64,0.06
					c0.17,0.01,0.34-0.03,0.49-0.11c0.16-0.05,0.29-0.14,0.41-0.26c0.12-0.12,0.21-0.25,0.26-0.41c0.08-0.15,0.12-0.31,0.11-0.49
					c-0.02-0.11-0.03-0.23-0.05-0.34c-0.06-0.22-0.17-0.4-0.33-0.56c-0.09-0.07-0.17-0.13-0.26-0.2
					C289.53,834.25,289.31,834.19,289.08,834.19L289.08,834.19z"/>
			</g>
		</g>
		<g>
			<g>
				<path class="st7" d="M262.32,862.46c-22.05-3.11-44.31-4.72-66.58-4.75c-6.34-0.01-12.67,0.12-19,0.36
					c-0.97,0.04-1.57,1.05-1.1,1.91c5.54,10.16,14.74,17.58,23.58,24.76c9.68,7.87,19.72,15.3,30.1,22.22
					c5.77,3.85,11.64,7.54,17.61,11.07c1.41,0.83,2.69-1.36,1.28-2.19c-10.5-6.22-20.71-12.93-30.58-20.11
					c-9.64-7.02-19.23-14.36-27.98-22.48c-4.62-4.28-8.79-9-11.82-14.56c-0.37,0.64-0.73,1.27-1.1,1.91
					c22.05-0.85,44.14-0.18,66.1,2.02c6.29,0.63,12.56,1.39,18.81,2.27C263.25,865.14,263.94,862.69,262.32,862.46L262.32,862.46z"
					/>
			</g>
		</g>
		<g>
			<g>
				<path class="st7" d="M203.4,875.29c15.49,2.83,28.2,13.05,42.85,18.21c4.08,1.44,8.3,2.41,12.62,2.74
					c1.63,0.12,1.62-2.42,0-2.54c-15.48-1.17-28.51-11.21-42.43-17.04c-3.99-1.67-8.1-3.04-12.37-3.82
					C202.48,872.55,201.8,874.99,203.4,875.29L203.4,875.29z"/>
			</g>
		</g>
		<g>
			<g>
				<path class="st7" d="M247.15,860.45c2.78-4.23,5.24-8.66,8.22-12.76c2.73-3.76,5.79-7.28,9.11-10.53
					c6.35-6.2,13.9-11.64,22.16-14.99c5.19-2.11,10.88-3.24,16.28-1.19c1.53,0.58,2.19-1.87,0.68-2.45
					c-9.51-3.61-19.92,1.5-27.9,6.54c-8.04,5.08-15.08,11.65-20.89,19.17c-3.66,4.74-6.56,9.94-9.85,14.93
					C244.06,860.54,246.26,861.81,247.15,860.45L247.15,860.45z"/>
			</g>
		</g>
		<g>
			<g>
				<path class="st7" d="M281.74,820.74c-0.94-18.1,10.48-33.77,12.84-51.33c-0.52,0.3-1.04,0.59-1.56,0.89
					c2.87,1.21,4.08,5.43,5.27,8c1.59,3.46,3.27,6.88,5.04,10.25c3.53,6.75,7.42,13.31,11.64,19.65c2.4,3.6,4.91,7.12,7.52,10.56
					c0.98,1.29,3.18,0.02,2.19-1.28c-9.66-12.73-17.85-26.55-24.49-41.08c-1.51-3.31-2.92-7.04-6.5-8.55
					c-0.58-0.24-1.48,0.27-1.56,0.89c-1.88,14-9.27,26.42-12,40.2c-0.77,3.89-1.14,7.84-0.93,11.8
					C279.28,822.37,281.82,822.38,281.74,820.74L281.74,820.74z"/>
			</g>
		</g>
		<g>
			<g>
				<path class="st7" d="M351.04,863.78c9.29-5.23,18.51-10.58,27.67-16.05c4.47-2.67,8.95-5.35,13.37-8.12
					c3.98-2.49,7.88-5.21,11.12-8.64c3.75-3.97,6.68-8.63,9.59-13.24c0.88-1.39-1.32-2.66-2.19-1.28c-2.56,4.05-5.12,8.15-8.3,11.75
					c-3.1,3.5-6.82,6.26-10.75,8.75c-8.66,5.5-17.54,10.68-26.41,15.83c-5.1,2.97-10.22,5.9-15.36,8.79
					C348.33,862.39,349.61,864.58,351.04,863.78L351.04,863.78z"/>
			</g>
		</g>
		<g>
			<g>
				<path class="st7" d="M412.68,812.84c0.7,5.3,1.84,10.52,3.48,15.62c0.41,1.28,2.68,1.15,2.5-0.34c-0.44-3.49-1.46-6.83-3.19-9.9
					c-0.58-1.04-2.5-0.65-2.37,0.64c0.46,4.58,2.17,8.91,5.22,12.39c0.98,1.12,2.66-0.31,2-1.54c-2.24-4.13-4.99-7.97-8.21-11.39
					c-0.85-0.9-2.53,0.03-2.12,1.24c1.2,3.58,2.41,7.15,3.61,10.73c0.62-0.48,1.24-0.96,1.87-1.43c-2.63-1.77-4.8-4.11-6.49-6.78
					c-0.81-1.29-2.53-0.4-2.32,0.98c0.51,3.4,2.38,6.57,5.29,8.44c1.38,0.89,2.65-1.31,1.28-2.19c-2.38-1.53-3.71-4.17-4.12-6.92
					c-0.77,0.33-1.55,0.65-2.32,0.98c1.93,3.05,4.4,5.68,7.4,7.7c0.9,0.61,2.21-0.4,1.87-1.43c-1.2-3.58-2.41-7.15-3.61-10.73
					c-0.71,0.41-1.42,0.82-2.12,1.24c3.08,3.27,5.67,6.93,7.81,10.88c0.67-0.51,1.33-1.03,2-1.54c-2.57-2.93-4.09-6.73-4.48-10.59
					c-0.79,0.21-1.58,0.43-2.37,0.64c1.49,2.66,2.46,5.59,2.84,8.62c0.83-0.11,1.66-0.23,2.5-0.34c-1.57-4.87-2.71-9.87-3.38-14.94
					c-0.09-0.69-0.52-1.26-1.27-1.27C413.33,811.56,412.59,812.16,412.68,812.84L412.68,812.84z"/>
			</g>
		</g>
		<g>
			<g>
				<path class="st7" d="M415.87,828.53c0.84,10.94-2.98,21.66-7.25,31.57c-3.93,9.12-8.74,17.86-14.39,26.03
					c-5.46,7.9-11.73,15.25-18.74,21.83c-6.77,6.36-14.33,11.74-21.56,17.55c-8.14,6.55-15.75,13.85-20.8,23.1
					c-0.78,1.44,1.41,2.72,2.19,1.28c9.22-16.86,26.55-26.12,40.36-38.65c14.59-13.25,26.14-29.79,34.2-47.74
					c4.89-10.89,9.46-22.83,8.53-34.97C418.29,826.91,415.75,826.9,415.87,828.53L415.87,828.53z"/>
			</g>
		</g>
		<g>
			<g>
				<path class="st7" d="M361.87,925.2c0.69,2.08-2.4,3.86-3.72,5c-1.58,1.36-3.09,2.79-4.55,4.28c-2.99,3.06-5.72,6.38-8.2,9.87
					c-5.05,7.11-9,14.99-11.81,23.24c-1.67,4.88-2.91,9.9-3.75,14.99c-0.26,1.6,2.18,2.29,2.45,0.68
					c2.95-17.81,11.04-35,23.92-47.78c1.7-1.69,3.48-3.27,5.32-4.8c1.82-1.5,3.62-3.64,2.79-6.14
					C363.8,922.98,361.35,923.64,361.87,925.2L361.87,925.2z"/>
			</g>
		</g>
		<g>
			<g>
				<path class="st7" d="M361.71,927.12c1.89,7.62,8.56,12.04,14.88,15.86c8.33,5.04,16.88,9.72,25.61,14.03
					c0.1-0.77,0.2-1.55,0.3-2.32c-2.12,0.38-4.22,1.35-6.19,2.19c-2.83,1.22-5.65,2.63-8.09,4.54c-1.78,1.39-3.87,3.47-3.35,5.97
					c0.3,1.47,1.53,2.67,2.5,3.74c1.43,1.57,2.99,3.01,4.53,4.47c3.37,3.21,6.58,6.6,7.26,11.39c0.3-0.52,0.59-1.04,0.89-1.56
					c-2.39,0.58-4.75-0.52-7.12-0.72c-1.54-0.13-3.2,0.14-4.55,0.93c-3.79,2.21-2.75,6.73-1.68,10.19
					c2.46,7.99,6.99,15.16,12.63,21.29c1.11,1.21,2.9-0.6,1.8-1.8c-4.96-5.38-9.04-11.62-11.45-18.56c-0.91-2.63-3.15-7.74,0.51-9.2
					c1.47-0.58,3.01-0.31,4.5,0c2.03,0.42,3.98,0.82,6.03,0.31c0.73-0.18,0.98-0.9,0.89-1.56c-1.16-8.11-8.67-12.29-13.46-18.15
					c-0.66-0.8-1.06-1.32-0.7-2.17c0.36-0.85,1.13-1.6,1.85-2.21c2.14-1.84,4.8-3.15,7.37-4.31c2.05-0.92,4.27-1.94,6.5-2.34
					c1.06-0.19,1.25-1.85,0.3-2.32c-8.3-4.1-16.43-8.53-24.37-13.28c-6.11-3.66-13.1-7.66-14.95-15.09
					C363.77,924.86,361.32,925.53,361.71,927.12L361.71,927.12z"/>
			</g>
		</g>
		<g>
			<g>
				<path class="st7" d="M394.64,1019.67c1.84,4.01,2.68,8.32,3.21,12.68c0.58,4.71,1.3,9.41,1.8,14.13
					c0.52,4.91,0.53,9.81-0.72,14.61c-1.13,4.35-3.02,8.44-5.07,12.43c-4.16,8.07-8.38,15.99-11.15,24.68
					c-2.77,8.68-4.32,17.84-3.95,26.97c0.39,9.72,2.83,19.52,8.08,27.79c0.87,1.38,3.07,0.1,2.19-1.28
					c-9.75-15.38-9.35-35.08-4.13-51.95c2.72-8.8,6.96-16.77,11.16-24.92c2.02-3.92,3.91-7.95,5.11-12.2
					c1.3-4.63,1.6-9.38,1.22-14.17c-0.43-5.37-1.32-10.73-1.98-16.08c-0.59-4.84-1.52-9.51-3.56-13.96
					C396.16,1016.9,393.97,1018.19,394.64,1019.67L394.64,1019.67z"/>
			</g>
		</g>
		<g>
			<g>
				<path class="st7" d="M233.11,908.13c5.58,11.65,11.21,23.43,18.89,33.88c1.8,2.45,3.71,4.84,5.76,7.09
					c2.17,2.39,4.61,4.47,6.85,6.78c3.39,3.51,6.04,7.9,4.85,12.92c-0.62,2.63-1.97,5.02-3.43,7.26c-0.9,1.38-1.86,2.71-2.85,4.03
					c-0.52,0.69-1.04,1.37-1.57,2.04c-0.25,0.32-0.5,0.74-0.8,1.02c-0.09,0.13-0.21,0.24-0.35,0.31c-0.42,0.12-0.29,0.36,0.39,0.71
					c-0.11-1.62-2.65-1.63-2.54,0c0.09,1.26,0.96,2.06,2.24,1.89c1.55-0.2,2.37-1.51,3.24-2.64c1.96-2.53,3.91-5.09,5.53-7.85
					c2.58-4.43,4-9.47,1.99-14.41c-1.15-2.82-3.07-5.25-5.2-7.4c-2.5-2.52-5.14-4.85-7.49-7.53c-4.68-5.35-8.6-11.33-12.13-17.49
					c-4.08-7.12-7.64-14.52-11.18-21.91C234.59,905.37,232.4,906.66,233.11,908.13L233.11,908.13z"/>
			</g>
		</g>
		<g>
			<g>
				<path class="st7" d="M276.02,1060.45c1.6-0.09,3.2-0.18,4.8-0.27c-0.41-0.31-0.82-0.62-1.22-0.93
					c2.25,14.52,7.68,28.59,16.21,40.58c0.94,1.32,3.14,0.05,2.19-1.28c-8.42-11.84-13.73-25.64-15.95-39.98
					c-0.08-0.52-0.72-0.96-1.23-0.93c-1.6,0.09-3.2,0.18-4.8,0.27C274.39,1058,274.38,1060.55,276.02,1060.45L276.02,1060.45z"/>
			</g>
		</g>
		<g>
			<g>
				<path class="st7" d="M287.35,1073.93c-20.83-10.88-42.34-22.21-66.03-24.9c-11.18-1.27-22.72-0.5-33.4,3.18
					c-9.74,3.35-19.01,8.93-26.83,15.6c-3.81,3.24-7.63,6.97-10.22,11.29c-2.73,4.57-3.6,9.86-4.17,15.07
					c-1.34,12.22-2.86,24.41-4.27,36.63c-1.47,12.7-2.88,25.42-4.3,38.13c-1.36,12.18-2.48,24.42-4.18,36.56
					c-1.46,10.37-3.65,21.62-10.13,30.16c-4.99,6.58-13.98,11.93-22.44,9.51c-1.99-0.57-3.81-1.58-5.38-2.93
					c-1.24-1.05-3.04,0.73-1.8,1.8c6.77,5.77,16.01,5.08,23.32,0.66c8.67-5.25,13.34-14.57,16-24.03c3.09-11,3.9-22.58,5.17-33.89
					c1.42-12.71,2.83-25.42,4.26-38.13c1.44-12.79,2.91-25.58,4.45-38.35c0.7-5.78,1.29-11.56,1.99-17.34
					c0.65-5.4,1.96-10.59,5.36-14.96c6.35-8.16,15.21-14.36,24.31-19.11c9.99-5.22,20.87-7.82,32.14-7.85
					c23.9-0.07,46.13,10.26,66.94,20.98c2.66,1.37,5.3,2.75,7.95,4.14C287.52,1076.88,288.8,1074.69,287.35,1073.93L287.35,1073.93z
					"/>
			</g>
		</g>
		<g>
			<g>
				<path class="st7" d="M392.21,949.51c24.05,0.72,48-4.29,69.86-14.29c6.36-2.91,12.52-6.24,18.46-9.92
					c1.39-0.86,0.11-3.06-1.28-2.19c-20.28,12.56-43.2,20.77-66.97,23.17c-6.67,0.67-13.37,0.9-20.07,0.7
					C390.58,946.92,390.58,949.46,392.21,949.51L392.21,949.51z"/>
			</g>
		</g>
		<g>
			<g>
				<path class="st7" d="M402.28,983.87c21.93-6.89,42.37-17.6,62.62-28.3c2.46-1.3,4.95-2.57,7.26-4.11
					c1.11-0.74,2.19-1.55,3.2-2.43c0.58-0.5,1.13-1.03,1.65-1.59c0.19-0.21,0.38-0.42,0.56-0.63c0.13-0.15,0.26-0.3,0.38-0.44
					c0.51-0.34,0.44-0.8-0.2-1.36c0.33-0.04,0.65-0.09,0.98-0.13c0.1,0.06,0.21,0.11,0.31,0.17c-1.12-1.2-2.91,0.6-1.8,1.8
					c1.65,1.77,3.75-1.27,2.33-2.79c-0.79-0.84-2.04-0.59-2.87,0.03c-1.17,0.87-2.04,2.18-3.15,3.15c-2.18,1.9-4.72,3.35-7.26,4.71
					c-2.85,1.53-5.72,3.03-8.58,4.53c-11.6,6.09-23.29,12.07-35.35,17.21c-6.8,2.9-13.72,5.51-20.77,7.72
					C400.05,981.91,400.72,984.36,402.28,983.87L402.28,983.87z"/>
			</g>
		</g>
		<g>
			<g>
				<path class="st7" d="M483.23,919.91c1.14-4.49,2.34-10.07,6.54-12.75c4.31-2.75,8.8,1.38,11.97,4.12
					c3.64,3.14,6.85,6.89,8.64,11.4c0.92,2.33,1.51,4.8,1.58,7.31c0.03,1.03,0.15,2.43-0.39,3.36c-0.54,0.93-1.69,1.34-2.68,1.58
					c-4.35,1.05-8.57-1.73-10.54-5.48c-0.76-1.45-2.95-0.17-2.19,1.28c2.18,4.17,6.65,7.23,11.47,6.94
					c2.27-0.14,4.93-0.94,6.13-3.03c1.36-2.35,0.79-5.94,0.29-8.46c-1.16-5.88-4.54-11.05-8.82-15.15
					c-2.08-1.99-4.36-3.89-6.78-5.44c-2.29-1.47-4.98-2.43-7.69-1.65c-6.5,1.87-8.54,9.58-9.98,15.31
					C480.37,920.82,482.82,921.5,483.23,919.91L483.23,919.91z"/>
			</g>
		</g>
		<g>
			<g>
				<path class="st7" d="M508.7,910.77c17.76-5.6,34.7-14.39,53.31-16.99c2.29-0.32,4.6-0.53,6.91-0.63
					c0.82-0.04,1.92-0.36,2.15,0.63c0.19,0.81-0.07,1.75-0.33,2.51c-0.88,2.57-2.69,4.84-4.61,6.72
					c-4.58,4.48-10.61,7.47-16.67,9.38c-5.85,1.85-12.84,3.25-18.85,1.32c-1.56-0.5-2.23,1.95-0.68,2.45
					c5.82,1.87,12.52,0.83,18.27-0.75c6.75-1.85,13.41-4.97,18.67-9.64c2.28-2.02,4.33-4.44,5.64-7.21c1.44-3.06,2.03-8.12-2.72-8
					c-10.08,0.25-19.99,2.82-29.49,6.05c-10.84,3.68-21.36,8.25-32.29,11.69C506.47,908.81,507.13,911.26,508.7,910.77L508.7,910.77
					z"/>
			</g>
		</g>
		<g>
			<g>
				<path class="st7" d="M520.08,938.87c4.25-0.26,11.32-1.78,13.83,2.87c0.84,1.56,1.29,4.04,0.09,5.55
					c-0.75,0.95-2.06,1.06-3.17,1.14c-1.65,0.12-3.34,0.24-4.99,0.04c-2.97-0.35-5.66-2.12-6.35-5.15
					c-0.37-1.59-2.82-0.92-2.45,0.68c0.75,3.26,3.41,5.73,6.59,6.62c1.91,0.54,3.93,0.54,5.9,0.44c1.81-0.1,3.81-0.1,5.36-1.17
					c2.39-1.64,2.74-4.88,2.01-7.49c-0.83-2.95-2.97-4.97-5.88-5.85c-3.54-1.07-7.31-0.44-10.92-0.22
					C518.46,936.43,518.44,938.97,520.08,938.87L520.08,938.87z"/>
			</g>
		</g>
		<g>
			<g>
				<path class="st7" d="M482.16,940.65c-0.73,3.38,0.34,6.84,2.61,9.42c2.34,2.66,5.85,3.86,9.26,4.39
					c3.25,0.5,6.73,0.74,9.85-0.47c1.52-0.59,2.8-1.49,3.95-2.63c0.72-0.72,2.42-3.05,3.64-2.51c1.48,0.66,2.78-1.53,1.28-2.19
					c-2.84-1.26-4.86,1.05-6.72,2.91c-2.35,2.35-5.38,2.91-8.6,2.73c-3.16-0.17-6.6-0.74-9.24-2.57c-2.63-1.82-4.27-5.2-3.58-8.39
					C484.95,939.73,482.5,939.05,482.16,940.65L482.16,940.65z"/>
			</g>
		</g>
		<g>
			<g>
				<path class="st7" d="M280.48,986.51c-10.43,3.33-21.24,0.41-31.04-3.59c-9.01-3.68-17.78-8.09-26.5-12.41
					c-16.48-8.17-32.72-17.26-46.83-29.16c-8.15-6.88-15.53-14.65-21.74-23.33c-0.94-1.32-3.15-0.05-2.19,1.28
					c11.21,15.67,25.98,28.19,42.23,38.4c8.01,5.03,16.34,9.53,24.79,13.78c8.78,4.41,17.65,8.77,26.67,12.67
					c11.04,4.77,23.37,8.62,35.29,4.81C282.71,988.46,282.04,986.01,280.48,986.51L280.48,986.51z"/>
			</g>
		</g>
		<g>
			<g>
				<path class="st7" d="M154.42,917.93c0.24-4.81,0.49-9.62,0.73-14.43c0.11-2.23,0.3-4.47,0.32-6.7c0.02-1.83-0.31-3.65-1.54-5.07
					c-1.08-1.25-2.67-1.93-4.23-2.37c-2.09-0.6-4.23-1.03-6.34-1.54c-2.02-0.48-4.21-1.26-6.3-0.85c-1.81,0.36-3.19,1.7-4.38,3.01
					c-3.68,4.04-7.28,8.15-10.93,12.22c-1.09,1.22,0.7,3.02,1.8,1.8c2.83-3.17,5.66-6.33,8.49-9.5c1.24-1.39,2.42-2.96,3.86-4.15
					c1.67-1.38,3.46-0.89,5.39-0.42c1.94,0.47,3.88,0.93,5.82,1.4c1.48,0.36,3.17,0.64,4.41,1.59c1.41,1.09,1.45,2.86,1.39,4.49
					c-0.07,2.03-0.2,4.06-0.3,6.08c-0.24,4.81-0.49,9.62-0.73,14.43C151.79,919.57,154.33,919.56,154.42,917.93L154.42,917.93z"/>
			</g>
		</g>
		<g>
			<g>
				<path class="st7" d="M133.04,893.24c-2.88-6.31-6.07-12.47-9.57-18.46c-1.73-2.96-3.55-5.88-5.43-8.74
					c-1.73-2.62-3.44-5.38-5.65-7.63c-1.86-1.88-4.16-3.34-6.86-3.48c-2.57-0.13-5.07,1.08-6.42,3.28
					c-3.21,5.21,0.68,11.66,3.46,16.09c4.04,6.44,8.65,12.52,13.76,18.16c1.1,1.21,2.89-0.59,1.8-1.8
					c-4.05-4.46-7.77-9.21-11.13-14.21c-1.63-2.42-3.28-4.88-4.62-7.48c-1.18-2.29-2.28-5.09-1.76-7.71
					c0.47-2.35,2.36-3.87,4.75-3.79c2.5,0.08,4.49,1.83,6.05,3.63c1.91,2.2,3.47,4.74,5.06,7.17c1.66,2.56,3.27,5.15,4.81,7.79
					c3.51,5.98,6.69,12.15,9.57,18.46C131.53,896.01,133.72,894.72,133.04,893.24L133.04,893.24z"/>
			</g>
		</g>
		<g>
			<g>
				<path class="st7" d="M114.32,889.18c-3.9-4.95-9.18-8.72-15.27-10.47c-0.84-0.24-1.56,0.42-1.61,1.23
					c-0.4,6.09,0.15,12.46,2.94,17.99c2.24,4.45,6.22,8.43,11.26,9.35c1.6,0.29,2.28-2.16,0.68-2.45c-4.59-0.83-7.96-4.47-9.91-8.53
					c-2.43-5.04-2.78-10.86-2.42-16.36c-0.54,0.41-1.07,0.82-1.61,1.22c5.69,1.64,10.5,5.2,14.14,9.82
					C113.54,892.26,115.32,890.45,114.32,889.18L114.32,889.18z"/>
			</g>
		</g>
		<g>
			<g>
				<path class="st7" d="M109.27,903.26c-1.63-0.87-3.26-1.75-4.89-2.62c-1.26-0.67-2.57-1.58-3.99-1.87
					c-1.26-0.25-2.59,0.05-3.26,1.23c-0.74,1.29-0.31,3.06-0.08,4.45c0.92,5.66,3.65,11.5,7.99,15.36c1.95,1.73,5.52,2.94,7.07,0.05
					c0.77-1.44-1.42-2.73-2.19-1.28c-1.06,1.99-4.25-1.7-4.93-2.5c-1.82-2.14-3.23-4.68-4.19-7.32c-0.48-1.33-0.86-2.7-1.13-4.08
					c-0.12-0.59-0.75-3.31-0.15-3.47c0.4-0.11,0.97,0.23,1.31,0.4c0.77,0.37,1.53,0.82,2.28,1.22c1.63,0.87,3.26,1.75,4.89,2.62
					C109.42,906.23,110.71,904.03,109.27,903.26L109.27,903.26z"/>
			</g>
		</g>
		<g>
			<g>
				<path class="st7" d="M133.1,904.72c-0.74,1.9-1.5,3.8-2.54,5.56c-0.9,1.53-2.1,3.15-3.76,3.92c-2.49,1.16-5.65,0.02-6.26-2.76
					c-0.35-1.6-2.8-0.92-2.45,0.68c0.89,4.06,5.46,6.02,9.22,4.62c4.6-1.72,6.61-7.15,8.24-11.33c0.25-0.64-0.27-1.39-0.89-1.56
					C133.94,903.64,133.35,904.08,133.1,904.72L133.1,904.72z"/>
			</g>
		</g>
		<g>
			<g>
				<path class="st7" d="M121.69,934.75c7.17,1.44,14.47,1.55,21.67,0.33c1.61-0.27,0.93-2.72-0.68-2.45
					c-6.73,1.14-13.63,1.02-20.32-0.33C120.77,931.98,120.08,934.42,121.69,934.75L121.69,934.75z"/>
			</g>
		</g>
		<g>
			<g>
				<path class="st7" d="M144.09,934c12.29,12.98,24.65,26.03,38.85,36.97c14.63,11.27,31.14,19.87,47.18,28.91
					c9.53,5.37,19.06,10.74,28.59,16.12c1.43,0.8,2.71-1.39,1.28-2.19c-16.56-9.33-33.19-18.54-49.66-28.03
					c-7.87-4.53-15.64-9.27-22.98-14.64c-7.13-5.22-13.79-11.08-20.18-17.18c-7.33-7.01-14.31-14.38-21.29-21.74
					C144.76,931.02,142.97,932.81,144.09,934L144.09,934z"/>
			</g>
		</g>
		<g>
			<g>
				<path class="st7" d="M253.1,1012.36c1.63,0,1.64-2.54,0-2.54C251.46,1009.82,251.46,1012.36,253.1,1012.36L253.1,1012.36z"/>
			</g>
		</g>
	</g>
	<g>
		<g>
			<path class="st7" d="M272.22,1004.68c-1.88,4.77-3.76,9.55-5.64,14.32c-0.97,2.46-1.94,4.93-2.91,7.39
				c-0.72,1.82-2.1,4.08-1.74,6.09c0.39,2.14,2.66,2.75,4.39,3.53c2.33,1.06,4.67,2.11,7,3.17c0.81,0.37,1.89,0.65,2.59,1.23
				c0.94,0.79-0.3,2.31-0.75,3.13c-1.2,2.2-2.42,4.39-3.65,6.57c-0.5,0.89,0.35,2.28,1.43,1.87c4.58-1.74,8.61,3.1,8.6,7.36
				c-0.01,1.64,2.54,1.64,2.54,0c0.02-5.79-5.67-12.16-11.81-9.81c0.48,0.62,0.96,1.24,1.43,1.87c1.23-2.18,2.45-4.37,3.65-6.57
				c0.96-1.76,2.3-3.91,0.79-5.77c-1.2-1.48-3.62-2.11-5.29-2.86c-2.33-1.06-4.67-2.1-7-3.17c-0.41-0.19-1.21-0.41-1.41-0.87
				c-0.19-0.43,0.12-1.1,0.26-1.51c0.42-1.21,0.94-2.39,1.41-3.58c0.91-2.31,1.82-4.62,2.73-6.93c1.94-4.93,3.88-9.85,5.82-14.78
				C275.27,1003.84,272.81,1003.18,272.22,1004.68L272.22,1004.68z"/>
		</g>
	</g>
	<g>
		<g>
			<path class="st7" d="M529.68,918.75c3.56-0.52,7.49-0.66,11.03,0.13c1.31,0.29,2.53,0.85,3.23,2.05
				c0.61,1.03,0.77,2.25,0.72,3.43c-0.13,2.71-1.55,5.06-3.92,6.38c-2.41,1.35-5.44,1.6-8.15,1.31c-2.69-0.28-5.59-1.47-6.56-4.2
				c-0.55-1.53-3-0.87-2.45,0.68c2.4,6.74,11.88,7.39,17.55,4.85c3.17-1.42,5.38-4.24,5.92-7.68c0.5-3.19-0.35-6.81-3.39-8.45
				c-1.99-1.07-4.43-1.22-6.64-1.35c-2.68-0.15-5.36,0.01-8.01,0.4c-0.68,0.1-1.05,0.96-0.89,1.56
				C528.31,918.6,529.01,918.85,529.68,918.75L529.68,918.75z"/>
		</g>
	</g>
</g>
</svg>
