<?xml version="1.0" encoding="utf-8"?>
<!-- Generator: Adobe Illustrator 24.3.0, SVG Export Plug-In . SVG Version: 6.00 Build 0)  -->
<svg version="1.1" id="handsAndBowl" xmlns="http://www.w3.org/2000/svg" xmlns:xlink="http://www.w3.org/1999/xlink" x="0px"
	 y="0px" viewBox="0 0 1199.49 718.55" style="enable-background:new 0 0 1199.49 718.55;" xml:space="preserve">
<style type="text/css">
	.st0{fill:#C0647C;}
	.st1{fill:#FEFEFE;}
</style>
<path d="M947.8,141.66c1.11-9.91,3.24-19.33,10.04-27.29c8.59-10.06,18.86-12.62,29.91-7.54c8.63,3.97,14.29,11.52,16.2,21.44
	c1.75,9.08,3.93,18.09,6.09,27.09c5.14,21.42,11.18,42.62,18.04,63.52c3.87,11.79,7.19,23.88,12.2,35.22
	c7.35,16.61,5.33,33.45,3.83,50.62c-1.01,11.58-1.33,23.25-2.23,34.86c-1.3,16.66-2.66,33.32-3.91,49.99
	c-0.49,6.5-0.53,13.03-1.13,19.52c-1.23,13.31-0.78,26.81-4.91,39.79c-1.52,4.78-4.16,9.11-6.57,13.23
	c-11.26,19.21-22.55,38.43-33.77,57.65c-7.5,12.84-15.3,25.55-22.41,38.66c-6.38,11.78-12.75,23.58-18.95,35.44
	c-6.11,11.69-11.49,23.75-16.71,35.91c-6.57,15.28-12.44,30.76-17.99,46.41c-4.57,12.9-7.53,26.26-11.56,39.3
	c-0.28,0.9-0.05,1.96-0.06,2.95c-71.66,0-143.31,0-214.97,0c-0.29-3.96,0.28-7.86,1.31-11.63c1.39-5.11,1.44-10.52,1.26-15.49
	c-0.18-5.06-0.22-10.44-0.06-15.3c0.29-8.92-0.04-17.87,0.28-26.8c0.67-18.76,0.21-37.55,0.12-56.33
	c-0.06-12.74,0.34-25.46,1.05-38.19c0.4-7.17,2.44-14.16,1.98-21.39c2.27-2.98,1.35-6.69,1.82-9.94c2.6-18,7.42-35.35,14.38-52.06
	c4.59-11.02,9.93-21.68,16.69-31.68c8.97-13.29,19.22-25.4,30.34-36.89c10.65-10.99,21.94-21.34,33.57-31.17
	c15.61-13.19,29.28-27.82,40.57-44.83c8.21-12.36,15.8-25.06,23.2-37.92c6.07-10.55,10.74-22.2,21.47-29.67
	c10.74-7.47,23.3-9.51,34.94-1.16c18.44,13.23,21,29.82,17.29,49.77c-3.06,16.48-10.66,31.34-18.46,45.89
	c-8,14.92-16.75,29.44-24.1,44.7c-3.6,7.46-6.29,15.28-5.54,24.22c2.89-0.95,3.68-3.15,4.92-4.79
	c7.94-10.47,15.98-20.88,23.62-31.57c10.86-15.19,22.25-30.06,31.15-46.53c10.33-19.1,17.38-39.45,22.19-60.62
	c2.95-12.99,3.84-25.78-0.02-38.8c-2.76-9.33-5.54-18.67-7.9-28.14c-2.12-8.54-2.92-17.41-6.23-25.67c0.27-0.4,0.82-0.84,0.76-1.19
	c-1.73-10.74-2.54-21.56-2.88-32.42C947.04,149.15,947.42,145.4,947.8,141.66z"/>
<path d="M328.98,718.46c-2.9-8.05-5.67-16.15-8.73-24.14c-2.94-7.67-6-15.31-9.31-22.82c-3.4-7.7-7.09-15.27-10.78-22.84
	c-4.3-8.82-8.7-17.59-13.32-26.26c-5.45-10.26-11.27-20.31-17.15-30.29c-2.7-4.58-5.45-9.3-8.59-13.72
	c-5.23-7.37-9.53-15.39-14.62-22.87c-15.28-22.47-30.84-44.76-46.1-67.25c-5.41-7.98-9.99-16.53-15.47-24.46
	c-5.46-7.89-9.99-16.1-11.92-25.54c-1.48-7.25-2.8-14.53-3.97-21.83c-2.48-15.45-4.76-30.94-7.22-46.4
	c-1.5-9.44-3.01-18.89-4.86-28.27c-1.65-8.4-3.01-16.89-4.17-25.32c-1.75-12.76-5-25.3-5.71-38.18c-0.45-8.19,2.56-15.9,4.41-23.75
	c3.9-16.53,8.61-32.86,11.57-49.62c1.74-9.87,4.32-19.59,6.07-29.46c1.76-9.89,3.09-19.88,4.65-29.79
	c1.22-7.72,0.85-15.78,4.1-23.25c3.08-7.1,8.62-10.89,15.3-13.92c5.49-2.48,10.74-2.05,15.71,0.58c6.3,3.32,11.9,7.51,15.4,14.14
	c2.99,5.65,5.44,11.48,7.65,17.45c1.26,9.42,3.31,18.7,3.14,28.33c-0.2,11.8-0.7,23.53-2.01,35.27
	c-1.23,11.06-2.79,22.07-5.45,32.84c-2.31,9.32-3.42,18.52-1.73,28.04c1.52,8.56,4.6,16.66,7.21,24.88
	c4.9,15.43,11.88,29.97,19.89,44.02c4.54,7.96,9.86,15.39,14.97,22.98c6.16,9.14,13.21,17.6,20.31,25.9
	c7.71,9,15.25,18.14,22.92,27.16c4.19,4.93,8.44,9.8,13.39,15.54c0.41-3.56,0.56-5.71-0.08-8.01
	c-3.96-14.03-12.44-25.68-19.89-37.84c-6.06-9.91-12.91-19.34-19-29.23c-7.55-12.25-14.41-24.89-18.9-38.66
	c-6.07-18.63-6.16-36,9.8-50.5c5.7-5.17,12.54-6.73,19.48-6.63c11.14,0.16,20.14,6.1,26.83,14.45c7.6,9.49,14.47,19.64,20.86,29.99
	c8.14,13.19,17.55,25.42,27.11,37.51c10.46,13.22,23.24,24.15,36.37,34.73c17.89,14.42,35.47,29.25,51.91,45.36
	c6.28,6.16,11.1,13.45,16.76,20.09c15.03,17.61,24.47,38.36,33.09,59.52c5.26,12.91,8.04,26.6,11.62,40.03
	c1.19,7.52,2.02,15.12,3.65,22.55c3.05,13.87,4,28,5.65,42.03c1.1,9.3,0.83,18.77,2.22,28.01c2.53,16.89,3.06,33.94,4.85,50.88
	c1.38,13.03,2.72,26.07,7.01,38.57C472.29,718.46,400.63,718.46,328.98,718.46z"/>
<path class="st0" d="M694.86,533.34c-6.78-0.06-13.22,1.72-19.71,3.41c-3.28,0.85-6.88,1.02-10.11,1.24
	c-6.11,0.43-12.12,1.69-17.97,2.75c-15.29,2.77-30.75,1.96-45.97,2.17c-12.48,0.17-25.46,1.7-37.99-1.92
	c-4.67-1.35-9.77-0.63-14.61-1.04c-9.39-0.8-18.42-4.23-27.94-3.53c-3.59-13.43-6.36-27.12-11.63-40.03
	c-8.62-21.16-18.07-41.9-33.09-59.52c-5.66-6.63-10.48-13.93-16.76-20.09c-16.44-16.11-34.02-30.94-51.91-45.36
	c-13.13-10.59-25.91-21.51-36.37-34.73c-9.56-12.09-18.97-24.32-27.11-37.51c-6.39-10.35-13.26-20.51-20.86-29.99
	c-6.69-8.35-15.7-14.29-26.83-14.45c-6.94-0.1-13.78,1.46-19.48,6.63c-15.96,14.5-15.88,31.87-9.8,50.5
	c4.49,13.77,11.35,26.41,18.9,38.66c6.09,9.89,12.94,19.32,19,29.23c7.45,12.16,15.93,23.82,19.89,37.84
	c0.65,2.29,0.49,4.45,0.08,8.01c-4.95-5.74-9.2-10.61-13.39-15.54c-7.67-9.03-15.21-18.16-22.92-27.16
	c-7.11-8.3-14.15-16.76-20.31-25.9c-5.12-7.58-10.44-15.02-14.97-22.98c-8.01-14.05-14.99-28.59-19.89-44.02
	c-2.61-8.22-5.69-16.32-7.21-24.88c-1.69-9.52-0.58-18.73,1.73-28.04c2.67-10.78,4.22-21.78,5.45-32.84
	c1.31-11.74,1.81-23.47,2.01-35.27c0.17-9.63-1.88-18.91-3.14-28.33c17.95-7.67,36.48-13.49,55.41-18.33
	c13.73-3.51,27.55-6.68,41.4-9.46c10.29-2.06,20.68-4.03,31.07-5.78c7.75-1.31,15.63-2.46,23.27-4.58c4.31-1.2,8.94-1.29,13.25-1.55
	c6.79-0.41,13.46-1.68,20.08-2.63c10.78-1.55,21.76-1.82,32.38-4.55c0.95-0.24,1.98-0.25,2.97-0.24
	c10.78,0.04,21.29-2.35,31.94-3.47c9.05-0.95,18.19-1.16,27.22-2.24c12.84-1.53,25.77-1.34,38.63-2.91
	c9.86-1.2,19.97-0.51,29.96-0.44c8.62,0.06,16.96-2.91,25.71-1.79c14.58,1.86,29.37-0.04,43.89,1.37
	c16.18,1.57,32.55,0.86,48.6,4.12c6.14,1.25,12.54,0.97,18.76,1.35c14.05,0.86,27.81,3.36,41.65,5.38
	c12.86,1.88,25.5,5.14,38.33,7.27c11.02,1.83,21.86,4.45,32.76,6.77c14.95,3.19,29.77,6.85,44.52,10.93
	c13.3,3.68,26.55,7.49,39.7,11.7c9.98,3.2,20.23,5.55,29.96,9.58c1.32,0.55,2.94,0.36,4.42,0.51c-0.38,3.74-0.76,7.48-1.15,11.22
	c-1.96,0.02-3.42-1.21-5-2.07c-7.23-3.96-14.88-7.82-22.47-10.04c-12.26-3.58-24.33-7.92-36.78-11.03
	c-13.65-3.41-27.29-7.05-40.86-10.85c-7.94-2.23-16.17-3.29-24.13-5.29c-9.1-2.28-18.29-4.07-27.48-5.73
	c-14.48-2.63-29.21-3.96-43.64-6.82c-14.5-2.88-29.16-4.45-43.79-5.48c-15.05-1.06-30.12-3.29-45.15-2.95
	c-23.78,0.53-47.39-2.95-71.28-1.12c-22,1.68-44.17,1.54-66.22,3.14c-8.94,0.65-17.87,1.41-26.8,2.14
	c-14.83,1.21-29.6,3.1-44.37,4.93c-6.26,0.77-12.77,0.75-18.72,2.31c-8.68,2.27-17.6,2.29-26.29,4.31
	c-5.7,1.33-11.74,1.95-17.63,2.82c-13.56,2.01-26.95,5.08-40.44,7.47c-11.39,2.02-22.54,4.88-33.73,7.6
	c-12.01,2.91-23.61,7.32-35.2,11.62c-10.58,3.94-20.32,9.22-26.66,19.12c-1.65,2.58-2.62,5.08-0.84,8.27
	c4.28,7.67,9.11,14.01,17.61,18.26c8.43,4.21,18.32,5.97,25.18,13.25c0.35,0.37,1.27,0.39,1.88,0.28c3.82-0.68,7.23,0.75,10.65,2.01
	c9.37,3.44,18.98,6.12,28.68,8.31c11.9,2.7,23.76,5.61,35.77,7.96c9.8,1.92,19.7,3.95,29.52,5.47c11.66,1.81,23.28,4.14,35.09,5.2
	c11.79,1.06,23.46,3.31,35.25,4.36c13.51,1.21,27.06,1.89,40.59,3.13c15.19,1.4,30.49,2.06,45.75,2.13
	c19.74,0.09,39.46,0.68,59.2,1.07c12.47,0.25,24.93-0.49,37.41-0.59c15.21-0.12,30.4-1.88,45.61-2.06
	c8.81-0.11,17.56-1.03,26.26-1.73c17.52-1.42,35.19-1.95,52.5-5.47c8.25-1.68,16.68-1.53,25.02-2.96
	c17.05-2.93,34.2-5.35,51.23-8.52c29.85-5.55,59.04-13.45,87.77-23.27c3.68-1.26,4.84-5.24,8.63-5.57c3.3,8.25,4.1,17.12,6.23,25.67
	c2.35,9.47,5.13,18.81,7.9,28.14c3.86,13.02,2.97,25.81,0.02,38.8c-4.8,21.18-11.86,41.52-22.19,60.62
	c-8.91,16.47-20.3,31.34-31.15,46.53c-7.64,10.69-15.68,21.1-23.62,31.57c-1.24,1.64-2.03,3.83-4.92,4.79
	c-0.75-8.94,1.95-16.76,5.54-24.22c7.35-15.26,16.11-29.79,24.1-44.7c7.8-14.55,15.4-29.42,18.46-45.89
	c3.71-19.95,1.15-36.54-17.29-49.77c-11.64-8.35-24.2-6.31-34.94,1.16c-10.74,7.47-15.4,19.12-21.47,29.67
	c-7.4,12.86-15,25.55-23.2,37.92c-11.29,17.01-24.96,31.64-40.57,44.83c-11.64,9.83-22.93,20.18-33.57,31.17
	c-11.12,11.49-21.37,23.6-30.34,36.89c-6.75,10-12.1,20.66-16.69,31.68c-6.96,16.71-11.78,34.06-14.38,52.06
	C696.21,526.64,697.13,530.36,694.86,533.34z"/>
<path class="st1" d="M948.78,186.49c-3.79,0.33-4.96,4.31-8.63,5.57c-28.73,9.82-57.91,17.72-87.77,23.27
	c-17.03,3.17-34.18,5.6-51.23,8.52c-8.35,1.43-16.77,1.28-25.02,2.96c-17.31,3.52-34.98,4.06-52.5,5.47
	c-8.7,0.7-17.45,1.63-26.26,1.73c-15.21,0.18-30.4,1.95-45.61,2.06c-12.48,0.1-24.94,0.84-37.41,0.59
	c-19.73-0.39-39.45-0.98-59.2-1.07c-15.26-0.07-30.56-0.73-45.75-2.13c-13.52-1.24-27.08-1.92-40.59-3.13
	c-11.79-1.05-23.46-3.3-35.25-4.36c-11.81-1.07-23.43-3.39-35.09-5.2c-9.82-1.52-19.72-3.55-29.52-5.47
	c-12-2.36-23.86-5.27-35.77-7.96c-9.7-2.2-19.31-4.88-28.68-8.31c-3.42-1.26-6.84-2.69-10.65-2.01c-0.6,0.11-1.53,0.09-1.88-0.28
	c-6.85-7.28-16.75-9.03-25.18-13.25c-8.49-4.25-13.32-10.59-17.61-18.26c-1.78-3.19-0.82-5.69,0.84-8.27
	c6.34-9.9,16.08-15.18,26.66-19.12c11.58-4.31,23.18-8.71,35.2-11.62c11.19-2.71,22.34-5.58,33.73-7.6
	c13.49-2.39,26.88-5.46,40.44-7.47c5.89-0.87,11.93-1.5,17.63-2.82c8.69-2.02,17.61-2.04,26.29-4.31
	c5.96-1.56,12.47-1.54,18.72-2.31c14.77-1.83,29.54-3.72,44.37-4.93c8.93-0.73,17.86-1.49,26.8-2.14
	c22.05-1.6,44.22-1.46,66.22-3.14c23.89-1.83,47.5,1.66,71.28,1.12c15.03-0.34,30.1,1.89,45.15,2.95
	c14.63,1.03,29.29,2.6,43.79,5.48c14.43,2.87,29.16,4.2,43.64,6.82c9.19,1.67,18.38,3.45,27.48,5.73c7.96,2,16.2,3.06,24.13,5.29
	c13.57,3.81,27.21,7.44,40.86,10.85c12.45,3.12,24.52,7.45,36.78,11.03c7.59,2.21,15.24,6.08,22.47,10.04
	c1.58,0.86,3.04,2.09,5,2.07c0.34,10.86,1.15,21.68,2.88,32.42C949.59,185.65,949.04,186.09,948.78,186.49z"/>
</svg>
