<?xml version="1.0" encoding="utf-8"?>
<!-- Generator: Adobe Illustrator 24.3.0, SVG Export Plug-In . SVG Version: 6.00 Build 0)  -->
<svg version="1.1" id="Layer_1" xmlns="http://www.w3.org/2000/svg" xmlns:xlink="http://www.w3.org/1999/xlink" x="0px" y="0px"
	 viewBox="0 0 1920 1080" style="enable-background:new 0 0 1920 1080;" xml:space="preserve">
<g>
<style type="text/css">
	.st0{opacity:0.57;fill:#EFFFAA;stroke:#00B49D;stroke-miterlimit:10;}
</style>
<ellipse class="st0" cx="247.06" cy="421.29" rx="174.69" ry="150.17"/>
<path d="M218.41,380.34c-3.53-6.72-7.35-13.57-13.43-18.33c-6.74-5.28-15.14-6.45-23.45-5.41c-15.97,2.01-30,11.13-39.13,24.23
	c-3.32,4.76,4.48,9.27,7.77,4.54c7.24-10.39,18.53-17.62,31.05-19.7c6.97-1.16,14.19-0.41,19.57,4.52c4.36,4,7.14,9.51,9.85,14.68
	C213.33,390.01,221.1,385.47,218.41,380.34z"/>
<path d="M364.93,385.31c-7.96-15.99-20.42-31.35-39.34-33.46c-18.76-2.1-33.98,13.48-43.65,27.76c-3.26,4.81,4.54,9.32,7.77,4.54
	c7.84-11.57,20.67-25.59,36.07-23.24c15.43,2.36,24.92,15.97,31.37,28.94C359.74,395.04,367.5,390.48,364.93,385.31z"/>
<path d="M308.27,448.11c-17.06,24.96-39.22,54.13-72.27,55.9c-14.01,0.75-27.66-4.62-37.5-14.63c-9.69-9.85-11.63-24.49-21.61-33.95
	c-4.2-3.99-10.58,2.37-6.36,6.36c6.12,5.8,8.32,14.06,12.22,21.29c3.42,6.34,8.15,12.04,13.72,16.61
	c11.52,9.46,26.27,14.44,41.19,13.2c35.92-2.99,59.54-32.68,78.38-60.24C319.32,447.86,311.52,443.35,308.27,448.11z"/>
	<g>
</svg>
