<?xml version="1.0" encoding="utf-8"?>
<!-- Generator: Adobe Illustrator 24.3.0, SVG Export Plug-In . SVG Version: 6.00 Build 0)  -->
<svg version="1.1" id="Layer_1" xmlns="http://www.w3.org/2000/svg" xmlns:xlink="http://www.w3.org/1999/xlink" x="0px" y="0px"
	 viewBox="0 0 1920 1080" style="enable-background:new 0 0 1920 1080;" xml:space="preserve">
<style type="text/css">
	.st0{opacity:0.57;fill:#EFFFAA;stroke:#00B49D;stroke-miterlimit:10;}
</style>
<ellipse class="st0" cx="247.06" cy="421.29" rx="174.69" ry="150.17"/>
<path d="M194.33,358.77c-4.43-3.78-10.37-5.16-15.8-3.36c-3.46,0.1-6.86,1.44-9.44,4.13c-2.39,2.5-3.56,5.39-3.79,8.38
	c-3.27,2.12-3.42,7.45-0.46,9.87c0.1,0.19,0.2,0.39,0.32,0.57c-0.76,4.76,3.13,9.49,7.82,10.36c0.95,1.4,2.52,2.39,4.73,2.39
	c2.04,0,3.53-0.84,4.5-2.07c8.69,1.4,16.71-4.54,18.24-12.2c0.02-0.05,0.05-0.1,0.07-0.15
	C202.97,370.47,199.13,362.87,194.33,358.77z"/>
<path d="M333.13,374.07c-0.34-2.05-1.46-3.97-2.32-5.85c-0.87-1.91-1.82-3.84-3.15-5.28c-2.63-3.51-7.15-5.98-11.41-5.82
	c-1.27-0.25-2.58-0.35-3.93-0.24c-0.06,0.01-0.12,0.01-0.18,0.02c-2.61-0.73-5.32-0.85-7.91,0.09c-6.8,2.47-8.16,9.49-6.09,15.48
	c-0.09,1.02-0.04,2.13,0.23,3.33c2.12,9.66,11.76,18.25,21.87,14.36c3.98-1.53,6.39-4.22,7.47-7.32c0.07-0.07,0.13-0.16,0.2-0.23
	c1.01-0.47,1.98-1.08,2.85-1.88C332.65,379.01,333.55,376.62,333.13,374.07z"/>
<path d="M334.11,471.65c-46.47,4.08-92.94,8.15-139.41,12.23c-7.63,0.67-7.7,12.68,0,12c46.47-4.08,92.94-8.15,139.41-12.23
	C341.74,482.98,341.81,470.98,334.11,471.65z"/>
</svg>
