<?xml version="1.0" encoding="utf-8"?>
<!-- Generator: Adobe Illustrator 24.3.0, SVG Export Plug-In . SVG Version: 6.00 Build 0)  -->
<svg version="1.1" id="Layer_1" xmlns="http://www.w3.org/2000/svg" xmlns:xlink="http://www.w3.org/1999/xlink" x="0px" y="0px"
	 viewBox="0 0 235 359" style="enable-background:new 0 0 235 359;" xml:space="preserve">
<style type="text/css">
	.Graphic_x0020_Style{fill:#1F9EDC;}
	.st0{fill:#77C9ED;}
	.st1{fill:#49C1EC;}
	.st2{fill:#A1DAF3;}
	.st3{fill:#D2EDF9;}
</style>
<g id="waterDrop">
	<path class="st0" d="M53.85,166.9c4.13-7.57,8.27-15.13,12.4-22.7c9.24-16.95,17.7-34.24,23.44-52.74c0.1-0.33,0.34-0.62,0.51-0.93
		c1.06,0.01,2.07,0.07,3.05-0.59c7.18-4.8,15.22-7.29,23.65-8.7c5.48,7.87,10.92,15.76,16.45,23.59
		c8.19,11.6,16.45,23.14,24.67,34.72c9.43,13.28,18.6,26.72,27.38,40.44c0.38,0.59,0.61,1.27,0.91,1.91c-2.01,0.7-1.86,2.55-2,4.09
		c-0.4,4.47-1.03,8.89-2.11,13.25c-1.37,5.53-1.34,5.54,4.14,7.18c7.87,2.36,9.94,9.94,4.4,16.13c-0.01-2.12-0.1-4.25-0.03-6.37
		c0.16-4.19-2.41-6.83-5.72-8.1c-3.74-1.44-7.91-2.96-11.63,0.74c-3.62,3.6-4.38,8.8-1.9,15.08c-0.61,1-1.42,1.93-1.81,3.01
		c-3.06,8.54-7.42,16.34-12.85,23.59c-5.64,7.54-12.61,13.53-21.17,17.27c-16.92,7.38-33.31,2.7-46.15-9.09
		c-8.6-7.91-14.17-17.65-18.64-28.2c-0.53-1.26-0.96-2.49-2.69-2.22c3.64-12.91,8.26-25.48,13.41-37.86c0.9,0.7,1.26,1.68,1.42,2.77
		c0.48,3.26,0.78,6.56,1.48,9.78c2.99,13.64,7.95,26.29,19.13,35.48c8.5,6.99,18.79,8.33,28.53,1.94
		c6.36-4.17,10.97-9.87,14.85-16.4c7.12-11.97,9.66-25.15,9.98-38.68c0.16-6.71-0.9-13.62-3.05-20.21
		c-0.49-1.49-1.56-3.19-0.57-5.07c1.78,0.42,1.56,3.66,3.22,2.74c1.53-0.85,0.29-2.97,0.01-4.55c-1.83-10.35-5.94-19.66-12.73-27.7
		c-3.24-3.84-7.25-6.79-11.81-8.93c-0.95-0.45-2.26-0.79-2.93,0.21c-0.57,0.84,0.36,1.74,0.88,2.51c2.87,4.2,5.84,8.34,8.57,12.63
		c0.74,1.16,3.17,2.33,1.73,3.69c-1.19,1.12-2.54-1.16-3.63-1.97c-7.17-5.39-14.96-7.42-23.73-5.14c-4.86,1.26-8.59,4.38-12.29,7.55
		c-0.8,0.69-1.71,1.65-2.77,1.16c-1.02-0.47-0.57-1.69-0.38-2.57c1.67-7.61,1.53-15.26,0.38-22.89c-0.35-2.31-0.58-4.9-3.04-6.85
		c-2.36,10.55-7.1,19.8-11.78,29.08c-2.07,4.11-4.76,7.89-6.48,12.19c-1.65,2.57-3.37,5.09-4.95,7.7
		c-4.93,8.19-9.61,16.53-14.97,24.45c-2.04-4.11-1.24-8.54-1.47-12.86C55.1,169.17,56.02,167.41,53.85,166.9z M104.41,87.46
		c-0.39,4.45-1.51,8.55-2.1,12.73c-0.45,3.17-1.3,6.22-2.06,9.31c-0.48,1.96-0.37,3.65,2.63,2.22c3.73-1.78,7.75-2.79,11.86-3.43
		c1.81-0.28,3.27-0.99,1.64-3.32C112.32,99.17,108.39,93.3,104.41,87.46z"/>
	<path class="Graphic_x0020_Style" d="M202.73,212.53c7.26,15.16,10.98,30.93,8.51,47.84c-6.49,44.43-39.9,75.22-79.63,81.78
		c-53.36,8.8-103.74-29.44-110.12-83.19c-2.13-17.96,2.38-34.27,10.12-50.07c1.88,1.13,1.63,3.2,2.28,4.91
		c0.94,2.48,0.17,5.78,3.25,7.3c-1.94,4.97-3.66,10.01-5.02,15.17c-4.67,17.71-2.9,34.73,5.36,51.08c1.98,4.49,4.62,8.52,8.34,11.78
		c2.11,3.42,5.27,5.62,8.68,7.54c5.45,4.06,11.55,5.72,18.31,4.96c4.11-0.46,7.51-4.79,6.48-8.63c-0.77-2.84-1.78-5.66-3.96-7.84
		c-1.12-2.61-1.85-5.39-3.5-7.76c-0.35-1.39-0.7-2.78-1.05-4.17c1.2-1.43,1.81-0.04,2.54,0.56c1.64,1.35,3.25,2.74,4.86,4.12
		c10.25,8.77,22.16,14.35,35.44,15.69c16.68,1.69,31.73-3.61,45.01-13.79c1.15-0.88,2.14-1.86,3.69-1.81
		c0.46,0.5,0.91,0.99,1.37,1.49c6.36,8.68,16.46,8.68,23.36,0c5.57-5.36,9.22-11.87,11.47-19.21c2.2-3.99,2.44-8.42,2.81-12.81
		c-0.05-7.19-1.23-13.9-7.78-18.36c-1.19-0.81-1.66-1.83-0.93-3.35c3.22-6.73,5.45-13.82,7.44-21
		C200.43,213.4,201.05,212.32,202.73,212.53z"/>
	<path class="st1" d="M162.32,287.99c-1.56-0.05-2.54,0.93-3.69,1.81c-13.28,10.18-28.33,15.48-45.01,13.79
		c-13.28-1.35-25.19-6.92-35.44-15.69c-1.61-1.38-3.22-2.77-4.86-4.12c-0.73-0.6-1.34-1.99-2.54-0.56c-0.5-0.77-0.99-1.54-1.49-2.32
		c-0.37-1.47-0.79-2.93-1.09-4.42c-2.16-10.89-4.8-21.68-3.1-32.99c0.77-5.15,2.18-10.14,3.06-15.25c1.73-0.27,2.15,0.96,2.69,2.22
		c4.47,10.55,10.04,20.29,18.64,28.2c12.83,11.79,29.22,16.46,46.15,9.09c8.56-3.73,15.54-9.73,21.17-17.27
		c5.43-7.26,9.79-15.06,12.85-23.59c0.39-1.08,1.19-2.01,1.81-3.01c0,0,0.35,0.04,0.35,0.04l0.35,0c2.12,4.6,6.78,6.23,12.08,4.21
		c1.06,0.07,1.8-0.35,2.09-1.42c0.25-0.25,0.5-0.5,0.74-0.76c1.44-0.9,2.94-1.74,3.68-3.41c5.54-6.19,3.47-13.77-4.4-16.13
		c-5.48-1.65-5.51-1.65-4.14-7.18c1.08-4.36,1.71-8.78,2.11-13.25c0.14-1.54-0.02-3.39,2-4.09c5.41,8.53,10.45,17.28,14.75,26.43
		c0.64,1.37,1.6,2.62,1.68,4.22c-1.68-0.2-2.3,0.87-2.67,2.23c-1.99,7.17-4.22,14.27-7.44,21c-0.72,1.51-0.26,2.53,0.93,3.35
		c6.55,4.45,7.72,11.16,7.78,18.35c-1.65-0.28-1.51-1.89-2.22-2.87c-2.57-3.55-2.71-9.69-9.34-9.07c-0.2,0.02-0.45-0.16-0.64-0.3
		c-2.91-2.13-6.2-3.42-9.61-4.49c-1-0.31-2.02-0.78-2.31-2c-0.51-2.15-1.79-1.99-3.52-1.41c-7.08,2.38-12.51,10.33-14.39,20.09
		l0,0.02c-0.22,0.25-0.43,0.5-0.65,0.76c-0.69,6.17-1.12,12.31-0.07,18.53C159.25,280.72,161.73,284.02,162.32,287.99z"/>
	<path class="st1" d="M116.9,81.23c-8.43,1.41-16.47,3.9-23.65,8.7c-0.98,0.66-2,0.6-3.05,0.59c2.66-10.17,4.76-20.42,5.41-30.96
		c0.29-4.7-0.28-9.35-0.11-14.14C102.06,57.76,109.56,69.44,116.9,81.23z"/>
	<path class="st1" d="M37.14,221.09c-3.08-1.53-2.31-4.82-3.25-7.3c-0.65-1.71-0.4-3.77-2.28-4.91c2.31-7.28,6.43-13.68,9.98-20.35
		c3.89-7.32,8.16-14.44,12.26-21.64c2.17,0.51,1.25,2.28,1.32,3.52c0.23,4.32-0.57,8.75,1.47,12.86
		C49.72,195.67,42.67,207.99,37.14,221.09z"/>
	<path class="st2" d="M76.55,151.11c1.72-4.3,4.41-8.08,6.48-12.19c4.68-9.27,9.42-18.52,11.78-29.08c2.46,1.96,2.68,4.55,3.04,6.85
		c1.16,7.63,1.3,15.28-0.38,22.89c-0.19,0.88-0.64,2.1,0.38,2.57c1.06,0.49,1.97-0.48,2.77-1.16c3.7-3.17,7.43-6.29,12.29-7.55
		c8.77-2.27,16.57-0.24,23.73,5.14c1.08,0.81,2.44,3.1,3.63,1.97c1.43-1.36-0.99-2.53-1.73-3.69c-2.73-4.29-5.7-8.43-8.57-12.63
		c-0.52-0.77-1.45-1.68-0.88-2.51c0.67-0.99,1.98-0.65,2.93-0.21c4.56,2.14,8.57,5.09,11.81,8.93c6.79,8.04,10.9,17.35,12.73,27.7
		c0.28,1.59,1.52,3.7-0.01,4.55c-1.66,0.92-1.44-2.32-3.22-2.74c-0.99,1.88,0.08,3.58,0.57,5.07c2.15,6.59,3.21,13.5,3.05,20.21
		c-0.32,13.53-2.86,26.71-9.98,38.68c-3.88,6.53-8.5,12.23-14.85,16.4c-9.74,6.39-20.03,5.05-28.53-1.94
		c-11.19-9.19-16.14-21.84-19.13-35.48c-0.7-3.21-1-6.52-1.48-9.78c-0.16-1.09-0.52-2.06-1.42-2.77c0.49-1.45,0.95-2.92,1.48-4.35
		c4.24-11.41,8.68-22.75,11.65-34.6c0.7-2.79,0.07-3.71-2.69-2.65C87.03,150.7,81.78,150.81,76.55,151.11z M128.66,175.22
		c0-4-0.63-6.64-2.19-9.16c-3.19-5.17-9-5.28-12.32-0.22c-3.87,5.89-3.64,14.15,0.56,19.64c2.83,3.7,6.71,3.98,9.95,0.72
		C127.69,183.15,128.88,179.44,128.66,175.22z"/>
	<path class="st3" d="M76.55,151.11c5.22-0.31,10.47-0.42,15.46-2.34c2.76-1.06,3.39-0.14,2.69,2.65
		c-2.97,11.84-7.41,23.18-11.65,34.6c-0.53,1.44-0.99,2.9-1.48,4.35c-5.15,12.38-9.77,24.95-13.41,37.86
		c-0.88,5.11-2.29,10.1-3.06,15.25c-1.7,11.31,0.95,22.11,3.1,32.99c0.29,1.49,0.72,2.95,1.09,4.42c-4.11,2.05-8.36,3.77-12.62,5.51
		c-6.39,2.61-12.76,1.57-19.19,0.94c-8.26-16.35-10.03-33.37-5.36-51.08c1.36-5.16,3.08-10.2,5.02-15.17
		c5.54-13.1,12.58-25.43,19.5-37.82c5.36-7.93,10.04-16.27,14.97-24.45C73.18,156.21,74.9,153.68,76.55,151.11z"/>
	<path class="st1" d="M104.41,87.46c3.98,5.84,7.92,11.72,11.97,17.51c1.63,2.33,0.17,3.03-1.64,3.32
		c-4.11,0.64-8.13,1.65-11.86,3.43c-3,1.43-3.11-0.25-2.63-2.22c0.76-3.09,1.61-6.14,2.06-9.31
		C102.9,96.01,104.02,91.9,104.41,87.46z"/>
	<path class="st2" d="M172.15,223.91l-0.35,0c0,0-0.35-0.03-0.35-0.04c-2.48-6.28-1.72-11.48,1.9-15.08
		c3.73-3.7,7.89-2.17,11.63-0.74c3.32,1.27,5.88,3.92,5.72,8.1c-0.08,2.12,0.01,4.25,0.03,6.37c-0.73,1.67-2.23,2.51-3.68,3.41
		c-0.11-2.02,1.55-3.36,1.97-5.21c1.04-4.57-0.61-8.72-4.4-10.51c-2.89-1.36-7.91,0.25-10.05,3.24
		C172.34,216.61,171.86,220.17,172.15,223.91z"/>
	<path class="st2" d="M162.32,287.99c-0.59-3.97-3.07-7.27-3.75-11.28c-1.05-6.23-0.62-12.36,0.07-18.53
		c0.22-0.25,0.43-0.5,0.65-0.76c0,0,0-0.02,0-0.02c1.5,0.1,1.85-1.19,2.61-2.06c5.47-6.35,12.27-9.92,20.69-7.77
		c7.3,1.86,13.6,6.18,14.74,14.44c0.37,2.73-0.4,5.7,1.2,8.26c-2.25,7.34-5.9,13.85-11.47,19.21c-3.55,0.34-6.35,2.83-10.09,3.03
		c-4.83,0.26-8.96-1.54-13.27-3.02C163.23,288.98,162.77,288.49,162.32,287.99z M161.46,271.86c-0.71,12.17,9.68,19.8,20.98,15.3
		c9.8-3.9,15.09-18.52,9.87-27.73c-2.49-4.39-6.3-7.16-11.63-7.74C171.26,250.68,160.63,260.92,161.46,271.86z"/>
	<path class="st0" d="M198.52,270.27c-1.6-2.56-0.83-5.53-1.2-8.26c-1.13-8.26-7.44-12.58-14.74-14.44
		c-8.41-2.15-15.21,1.42-20.69,7.77c-0.76,0.88-1.1,2.17-2.61,2.06c1.89-9.76,7.31-17.71,14.39-20.09c1.73-0.58,3.02-0.74,3.52,1.41
		c0.29,1.22,1.31,1.69,2.31,2c3.41,1.07,6.7,2.36,9.61,4.49c0.19,0.14,0.43,0.32,0.64,0.3c6.63-0.62,6.77,5.52,9.34,9.07
		c0.71,0.99,0.57,2.6,2.22,2.87C200.96,261.85,200.72,266.27,198.52,270.27z"/>
	<path class="st2" d="M37.47,287.34c6.44,0.64,12.8,1.68,19.19-0.94c4.26-1.74,8.51-3.45,12.62-5.51c0.5,0.77,0.99,1.54,1.49,2.31
		c0.35,1.39,0.7,2.78,1.05,4.17c-3.65,1.56-7.3,3.11-10.93,4.7c-0.41,0.18-1.05,0.53-1.07,0.83c-0.3,4.48-4.12,3.48-6.72,4.54
		c-2.38,0.97-5.22-0.38-7.29,1.66C42.09,295.86,39.45,291.83,37.47,287.34z"/>
	<path class="st0" d="M45.81,299.12c2.07-2.05,4.91-0.7,7.29-1.66c2.6-1.06,6.42-0.06,6.72-4.54c0.02-0.3,0.66-0.65,1.07-0.83
		c3.64-1.58,7.29-3.14,10.93-4.7c1.65,2.37,2.39,5.15,3.5,7.76c-1.01,1.75-2.7,2.43-4.5,3.12c-1.56,0.59-3.69,0.87-4.07,2.92
		c-0.27,1.47-1.14,1.89-2.28,2.26c-3.33,1.07-6.65,2.14-9.98,3.2C51.09,304.74,47.92,302.53,45.81,299.12z"/>
	<path class="st1" d="M54.49,306.66c3.33-1.07,6.65-2.14,9.98-3.2c1.14-0.37,2-0.79,2.28-2.26c0.38-2.05,2.51-2.33,4.07-2.92
		c1.81-0.69,3.49-1.37,4.5-3.12c2.18,2.17,3.19,5,3.96,7.84c1.04,3.84-2.36,8.17-6.48,8.63C66.05,312.37,59.95,310.71,54.49,306.66z
		"/>
	<path class="st0" d="M163.68,289.48c4.31,1.49,8.44,3.28,13.27,3.02c3.74-0.2,6.55-2.69,10.09-3.03
		C180.14,298.16,170.04,298.16,163.68,289.48z"/>
	<path class="st3" d="M172.15,223.91c-0.29-3.74,0.18-7.29,2.43-10.43c2.15-2.99,7.16-4.61,10.05-3.24
		c3.79,1.79,5.44,5.94,4.4,10.51c-0.42,1.85-2.08,3.19-1.97,5.21c-0.25,0.25-0.5,0.5-0.74,0.76c-1.01,0.01-1.99,0.07-2.09,1.42
		C178.93,230.13,174.28,228.51,172.15,223.91z"/>
	<path class="st2" d="M184.23,228.12c0.1-1.35,1.08-1.41,2.09-1.42C186.03,227.77,185.3,228.19,184.23,228.12z"/>
	<path class="st0" d="M159.29,257.42c-0.22,0.25-0.43,0.5-0.65,0.76C158.86,257.92,159.07,257.67,159.29,257.42z"/>
	<path class="st3" d="M128.66,175.22c0.22,4.22-0.98,7.93-4,10.97c-3.24,3.26-7.12,2.97-9.95-0.72c-4.2-5.49-4.44-13.75-0.56-19.64
		c3.32-5.05,9.13-4.95,12.32,0.22C128.03,168.58,128.66,171.22,128.66,175.22z"/>
	<path class="st3" d="M161.46,271.86c-0.83-10.94,9.8-21.19,19.22-20.17c5.33,0.58,9.14,3.35,11.63,7.74
		c5.22,9.21-0.07,23.83-9.87,27.73C171.14,291.66,160.75,284.03,161.46,271.86z"/>
</g>
</svg>
